<svg data-v-423bf9ae="" xmlns="http://www.w3.org/2000/svg" viewBox="0 0 82.74787577283925 60" class="font"><!----><!----><!----><g data-v-423bf9ae="" id="902b01b1-f907-4e5d-ab53-e6810732750b" fill="white" transform="matrix(4.514341354370117,0,0,4.514341354370117,3.160039186477661,-4.600224018096924)"><path d="M5.65 2.63L5.65 2.63Q5.36 1.84 4.65 1.42L4.65 1.42L4.65 1.42Q3.99 1.03 3.10 1.02L3.10 1.02L3.10 1.02Q2.09 1.00 0.83 1.39L0.83 1.39L0.83 1.39Q0.11 1.61 0.16 1.80L0.16 1.80L0.16 1.80Q0.23 2.04 0.95 1.83L0.95 1.83L0.95 1.83Q1.14 1.76 1.33 1.72L1.33 1.72L1.33 1.72Q1.34 1.72 1.39 1.70L1.39 1.70L1.39 1.70Q1.44 1.69 1.46 1.69L1.46 1.69L1.46 1.69Q1.52 1.67 1.59 1.66L1.59 1.66L1.59 1.66Q1.65 1.65 1.76 1.63L1.76 1.63L1.76 1.63Q1.76 1.63 1.86 1.62L1.86 1.62L1.86 1.62Q1.93 1.61 2.06 1.61L2.06 1.61L2.06 1.61Q2.06 1.61 2.15 1.61L2.15 1.61L2.15 1.61Q2.88 1.61 3.44 2.00L3.44 2.00L3.44 2.00Q4.05 2.43 4.27 3.27L4.27 3.27L4.27 3.27Q4.46 3.98 4.35 4.81L4.35 4.81L4.35 4.81Q4.10 6.56 2.91 7.40L2.91 7.40L2.91 7.40Q2.87 7.42 2.81 7.46L2.81 7.46L2.81 7.46Q2.82 7.46 2.80 7.46L2.80 7.46L2.80 7.46Q2.79 7.47 2.77 7.48L2.77 7.48L2.77 7.48Q2.71 7.48 2.71 7.49L2.71 7.49L2.71 7.49Q2.61 7.49 2.53 7.47L2.53 7.47L2.53 7.47Q1.85 7.36 1.78 6.66L1.78 6.66L1.78 6.66Q1.77 6.60 1.67 6.58L1.67 6.58L1.67 6.58Q1.68 6.55 1.70 6.49L1.70 6.49L1.70 6.49Q1.70 6.44 1.71 6.42L1.71 6.42L1.71 6.42Q2.25 3.25 2.57 2.24L2.57 2.24L2.57 2.24Q2.65 1.98 1.99 2.10L1.99 2.10L1.99 2.10Q1.68 2.15 1.43 2.27L1.43 2.27L1.43 2.27Q1.16 2.40 1.13 2.50L1.13 2.50L1.13 2.50Q0.81 3.51 0.25 6.77L0.25 6.77L0.25 6.77Q0.01 8.13-0.21 8.89L-0.21 8.89L-0.21 8.89Q-0.66 10.44-0.70 10.94L-0.70 10.94L-0.70 10.94Q-0.70 11.01-0.48 11.02L-0.48 11.02L-0.48 11.02Q-0.27 11.03 0.01 10.98L0.01 10.98L0.01 10.98Q0.74 10.84 0.77 10.55L0.77 10.55L0.77 10.55Q0.80 10.13 1.26 8.54L1.26 8.54L1.26 8.54Q1.33 8.31 1.39 8.03L1.39 8.03L1.39 8.03Q2.03 8.13 2.88 7.92L2.88 7.92L2.88 7.92Q4.59 7.52 5.42 5.75L5.42 5.75L5.42 5.75Q6.20 4.09 5.65 2.63L5.65 2.63ZM8.93 4.49L8.93 4.49Q8.64 5.29 7.03 8.25L7.03 8.25L7.03 8.25Q6.66 8.94 6.30 9.46L6.30 9.46L6.30 9.46Q6.45 6.56 7.85 4.18L7.85 4.18L7.85 4.18Q7.94 4.03 7.63 4.02L7.63 4.02L7.63 4.02Q7.43 4.01 7.27 4.05L7.27 4.05L7.27 4.05Q6.56 4.17 6.41 4.44L6.41 4.44L6.41 4.44Q4.72 7.29 4.83 10.75L4.83 10.75L4.83 10.75Q4.87 10.83 4.96 10.84L4.96 10.84L4.96 10.84Q6.02 10.96 6.92 10.17L6.92 10.17L6.92 10.17Q7.52 9.63 8.20 8.46L8.20 8.46L8.20 8.46Q8.27 8.35 8.36 8.19L8.36 8.19L8.36 8.19Q8.29 8.54 7.70 10.96L7.70 10.96L7.70 10.96Q7.65 11.21 8.29 11.09L8.29 11.09L8.29 11.09Q8.59 11.04 8.85 10.92L8.85 10.92L8.85 10.92Q9.13 10.79 9.15 10.70L9.15 10.70L9.15 10.70Q10.25 6.05 10.38 4.16L10.38 4.16L10.38 4.16Q10.40 3.98 9.71 4.13L9.71 4.13L9.71 4.13Q9.01 4.28 8.93 4.49L8.93 4.49ZM11.40 4.33L11.40 4.33Q10.99 5.34 10.60 7.55L10.60 7.55L10.60 7.55Q10.14 10.15 9.83 11.18L9.83 11.18L9.83 11.18Q9.56 12.07 9.17 12.80L9.17 12.80L9.17 12.80Q8.93 13.25 8.74 13.47L8.74 13.47L8.74 13.47Q8.64 13.58 8.48 13.71L8.48 13.71L8.48 13.71Q8.47 13.72 8.41 13.76L8.41 13.76L8.41 13.76Q8.38 13.78 8.37 13.79L8.37 13.79L8.37 13.79Q8.37 13.78 8.50 13.75L8.50 13.75L8.50 13.75Q8.53 13.73 8.65 13.72L8.65 13.72L8.63 13.72L8.63 13.72Q8.64 13.72 8.60 13.71L8.60 13.71L8.60 13.71Q8.42 13.68 8.24 13.49L8.24 13.49L8.24 13.49Q7.88 13.11 8.09 12.22L8.09 12.22L8.09 12.22Q8.16 11.97 7.51 12.09L7.51 12.09L7.51 12.09Q7.21 12.14 6.96 12.26L6.96 12.26L6.96 12.26Q6.68 12.39 6.66 12.48L6.66 12.48L6.66 12.48Q6.44 13.36 6.75 13.84L6.75 13.84L6.75 13.84Q7.06 14.31 7.77 14.31L7.77 14.31L7.77 14.31Q8.85 14.29 9.71 13.66L9.71 13.66L9.71 13.66Q10.23 13.28 10.70 12.35L10.70 12.35L10.70 12.35Q11.37 11.04 11.78 8.82L11.78 8.82L11.78 8.82Q12.38 5.52 12.47 5.17L12.47 5.17L12.47 5.17Q12.63 4.57 12.84 4.07L12.84 4.07L12.84 4.07Q12.90 3.91 12.61 3.90L12.61 3.90L12.61 3.90Q12.45 3.90 12.26 3.93L12.26 3.93L12.26 3.93Q11.50 4.07 11.40 4.33L11.40 4.33ZM11.77 2.51L11.77 2.51Q11.79 2.53 11.81 2.55L11.81 2.55L11.81 2.55Q11.80 2.54 11.76 2.50L11.76 2.50L11.76 2.50Q11.79 2.54 11.89 2.69L11.89 2.69L11.89 2.69Q11.98 2.80 12.04 2.86L12.04 2.86L12.04 2.86Q12.08 2.88 12.13 2.90L12.13 2.90L12.13 2.90Q12.26 2.93 12.41 2.91L12.41 2.91L12.41 2.91Q12.68 2.88 12.97 2.78L12.97 2.78L12.97 2.78Q13.25 2.68 13.38 2.56L13.38 2.56L13.38 2.56Q13.39 2.55 13.41 2.53L13.41 2.53L13.41 2.53Q13.43 2.50 13.44 2.49L13.44 2.49L13.44 2.49Q13.48 2.42 13.41 2.37L13.41 2.37L13.41 2.37Q13.39 2.35 13.37 2.33L13.37 2.33L13.41 2.38L13.41 2.38Q13.38 2.34 13.28 2.19L13.28 2.19L13.28 2.19Q13.20 2.08 13.14 2.02L13.14 2.02L13.14 2.02Q13.08 2.00 13.06 1.98L13.06 1.98L13.06 1.98Q12.91 1.96 12.77 1.98L12.77 1.98L12.77 1.98Q12.50 2.00 12.20 2.11L12.20 2.11L12.20 2.11Q11.93 2.20 11.80 2.32L11.80 2.32L11.80 2.32Q11.77 2.35 11.74 2.39L11.74 2.39L11.74 2.39Q11.70 2.47 11.77 2.51L11.77 2.51ZM14.51 9.01L14.51 9.01Q14.05 9.63 13.93 9.78L13.93 9.78L13.93 9.78Q13.89 9.69 13.86 9.60L13.86 9.60L13.86 9.60Q13.64 8.99 13.79 7.95L13.79 7.95L13.79 7.95Q13.90 7.14 14.31 6.16L14.31 6.16L14.31 6.16Q14.46 5.80 14.66 5.44L14.66 5.44L14.66 5.44Q14.79 5.22 14.96 5.04L14.96 5.04L14.96 5.04Q15.12 4.88 15.36 4.70L15.36 4.70L15.36 4.70Q15.37 4.69 15.37 4.68L15.37 4.68L15.37 4.68Q15.39 4.68 15.42 4.66L15.42 4.66L15.42 4.66Q15.46 4.63 15.53 4.58L15.53 4.58L15.53 4.58Q15.53 4.58 15.54 4.57L15.54 4.57L15.54 4.57Q15.74 4.74 15.71 5.37L15.71 5.37L15.71 5.37Q15.70 5.48 16.13 5.44L16.13 5.44L16.13 5.44Q16.02 5.98 15.80 6.88L15.80 6.88L15.80 6.88Q15.43 7.77 14.51 9.01L14.51 9.01ZM17.63 4.85L17.63 4.85Q17.63 4.72 17.17 4.77L17.17 4.77L17.17 4.77Q17.15 4.17 16.78 4.01L16.78 4.01L16.78 4.01Q16.20 3.75 15.17 4.17L15.17 4.17L15.17 4.17Q13.75 4.74 13.16 5.81L13.16 5.81L13.16 5.81Q12.22 7.56 12.28 9.26L12.28 9.26L12.28 9.26Q12.30 10.25 12.79 10.56L12.79 10.56L12.79 10.56Q13.02 10.71 13.62 10.63L13.62 10.63L13.62 10.63Q14.18 10.55 14.65 10.22L14.65 10.22L14.65 10.22Q14.92 10.04 15.19 9.75L15.19 9.75L15.19 9.75Q15.11 10.31 15.07 10.81L15.07 10.81L15.07 10.81Q15.07 10.88 15.29 10.90L15.29 10.90L15.29 10.90Q15.50 10.90 15.78 10.85L15.78 10.85L15.78 10.85Q16.51 10.71 16.53 10.42L16.53 10.42L16.53 10.42Q16.61 9.17 17.23 6.64L17.23 6.64L17.23 6.64Q17.60 5.73 17.63 4.85L17.63 4.85Z"></path></g><!----><!----></svg>